<svg xmlns="http://www.w3.org/2000/svg" data-name="Layer 1" viewBox="0 -10 125 145" x="0px" width="58px" height="58px" fill="#193cb8" y="0px"><title>Miscellaneous 236 solid</title><rect x="37" y="16" width="54" height="4"/><path d="M104,30a9.01015,9.01015,0,0,0,9-9V15a9,9,0,0,0-18,0v6A9.01015,9.01015,0,0,0,104,30Z"/><path d="M24,30a9.01015,9.01015,0,0,0,9-9V15a9,9,0,0,0-18,0v6A9.01015,9.01015,0,0,0,24,30Z"/><path d="M97,60a31,31,0,1,0,31,31A31.035,31.035,0,0,0,97,60Zm16.416,21.4126-21.94238,22a2.02244,2.02244,0,0,1-2.832,0C88.62738,103.39832,78.584,93.3291,78.584,93.3291a2.00013,2.00013,0,0,1,2.832-2.8252l8.6416,8.66406L110.584,78.5874a2.00013,2.00013,0,0,1,2.832,2.8252Z"/><rect x="45" y="51" width="12" height="12"/><rect x="45" y="77" width="12" height="12"/><rect x="19" y="77" width="12" height="12"/><path d="M71,51V63h5.02A34.7512,34.7512,0,0,1,83,58.92V51Zm26,0v5a34.85467,34.85467,0,0,1,12,2.12V51Zm23-35h-3v4h3a3.99887,3.99887,0,0,1,4,4V36H4V24a3.99887,3.99887,0,0,1,4-4h3V16H8a8.01062,8.01062,0,0,0-8,8V96a8.01066,8.01066,0,0,0,8,8H64.5a34.9885,34.9885,0,0,1,7.04-37H69a2.00591,2.00591,0,0,1-2-2V49a2.00587,2.00587,0,0,1,2-2H85a2.00587,2.00587,0,0,1,2,2v8.45a34.86277,34.86277,0,0,1,6-1.22V49a2.00587,2.00587,0,0,1,2-2h16a2.00587,2.00587,0,0,1,2,2V59.87a35.275,35.275,0,0,1,15,14.89V24A8.01062,8.01062,0,0,0,120,16ZM35,91a2.00591,2.00591,0,0,1-2,2H17a2.00591,2.00591,0,0,1-2-2V75a2.00587,2.00587,0,0,1,2-2H33a2.00587,2.00587,0,0,1,2,2Zm26,0a2.00591,2.00591,0,0,1-2,2H43a2.00591,2.00591,0,0,1-2-2V75a2.00587,2.00587,0,0,1,2-2H59a2.00587,2.00587,0,0,1,2,2Zm0-26a2.00591,2.00591,0,0,1-2,2H43a2.00591,2.00591,0,0,1-2-2V49a2.00587,2.00587,0,0,1,2-2H59a2.00587,2.00587,0,0,1,2,2Z"/></svg>