<svg xmlns="http://www.w3.org/2000/svg" viewBox="0 -10 125 145" width="58" height="58" fill="#155dfc" xmlns:v="https://vecta.io/nano"><path d="M37 16h54v4H37z"/><use href="#B"/><use href="#B" x="-80"/><path d="M97 60a31 31 0 1 0 31 31 31.035 31.035 0 0 0-31-31zm16.416 21.413l-21.942 22a2.022 2.022 0 0 1-2.832 0L78.584 93.329a2 2 0 0 1 2.832-2.825l8.642 8.664 20.526-20.581a2 2 0 0 1 2.832 2.825zM45 51h12v12H45zm0 26h12v12H45zm-26 0h12v12H19zm52-26v12h5.02A34.751 34.751 0 0 1 83 58.92V51zm26 0v5a34.855 34.855 0 0 1 12 2.12V51zm23-35h-3v4h3a3.999 3.999 0 0 1 4 4v12H4V24a3.999 3.999 0 0 1 4-4h3v-4H8a8.011 8.011 0 0 0-8 8v72a8.011 8.011 0 0 0 8 8h56.5a34.989 34.989 0 0 1 7.04-37H69a2.006 2.006 0 0 1-2-2V49a2.006 2.006 0 0 1 2-2h16a2.006 2.006 0 0 1 2 2v8.45a34.863 34.863 0 0 1 6-1.22V49a2.006 2.006 0 0 1 2-2h16a2.006 2.006 0 0 1 2 2v10.87a35.275 35.275 0 0 1 15 14.89V24a8.011 8.011 0 0 0-8-8zM35 91a2.006 2.006 0 0 1-2 2H17a2.006 2.006 0 0 1-2-2V75a2.006 2.006 0 0 1 2-2h16a2.006 2.006 0 0 1 2 2zm26 0a2.006 2.006 0 0 1-2 2H43a2.006 2.006 0 0 1-2-2V75a2.006 2.006 0 0 1 2-2h16a2.006 2.006 0 0 1 2 2zm0-26a2.006 2.006 0 0 1-2 2H43a2.006 2.006 0 0 1-2-2V49a2.006 2.006 0 0 1 2-2h16a2.006 2.006 0 0 1 2 2z"/><defs ><path id="B" d="M104 30a9.01 9.01 0 0 0 9-9v-6a9 9 0 0 0-18 0v6a9.01 9.01 0 0 0 9 9z"/></defs></svg>