<svg xmlns="http://www.w3.org/2000/svg" viewBox="-5 -10 110 135" width="68" height="68" fill="#155dfc" xmlns:v="https://vecta.io/nano"><path d="M23.609 40v35.379h-6.75V40zm-11.758-7.211h76.301-.004a1.69 1.69 0 0 0 1.691-1.687V24c0-1.035-.629-1.965-1.59-2.352l-37-15.922v.004c-.793-.363-1.707-.363-2.5 0l-37 15.922v-.004c-.961.387-1.59 1.316-1.59 2.352v7.102a1.69 1.69 0 0 0 1.691 1.688zm38.148-18.438c2.344 0 4.453 1.41 5.348 3.574s.402 4.652-1.254 6.309-4.145 2.152-6.309 1.254-3.574-3.008-3.574-5.348a5.79 5.79 0 0 1 5.789-5.789zM6.128 94.558H93.87c.781-.004 1.414-.637 1.418-1.418v-2.211a1.42 1.42 0 0 0-1.418-1.418H6.128a1.42 1.42 0 0 0-1.418 1.418v2.211c.004.781.637 1.414 1.418 1.418zm4.559-12h78.621c.379.004.742.156 1.008.426s.418.637.414 1.016v3.641H9.268v-3.641c.008-.781.637-1.414 1.422-1.422zm5.551-44.48a1.9 1.9 0 0 1-1.898-1.887v-1.52h11.789v1.52c0 1.043-.844 1.887-1.891 1.887zm0 39.191a1.9 1.9 0 0 0-1.898 1.891v1.519h11.789V79.16a1.89 1.89 0 0 0-1.891-1.891zm19.84 0a1.89 1.89 0 0 0-1.887 1.891v1.519H46V79.16c0-1.043-.848-1.891-1.891-1.891zm19.84 0h.004a1.9 1.9 0 0 0-1.359.543c-.359.355-.562.84-.562 1.348v1.519h11.809V79.16a1.89 1.89 0 0 0-1.887-1.891zm19.84 0h.004a1.89 1.89 0 0 0-1.891 1.891v1.519H85.66V79.16a1.9 1.9 0 0 0-1.898-1.891zm-39.68-39.191c-1.043 0-1.887-.844-1.887-1.887v-1.52H46v1.52a1.89 1.89 0 0 1-1.891 1.887zm19.84 0h.004c-.508.012-.996-.187-1.359-.539a1.9 1.9 0 0 1-.562-1.348v-1.52h11.809v1.52c0 1.043-.844 1.887-1.887 1.887zm19.84 0h.004c-1.047 0-1.891-.844-1.891-1.887v-1.52H85.66v1.52a1.9 1.9 0 0 1-1.898 1.887zM43.46 40v35.379h-6.762V40zm19.84 0v35.379h-6.762V40zm19.84 0v35.379h-6.75V40z" fill-rule="evenodd"/></svg>