<svg xmlns="http://www.w3.org/2000/svg" version="1.1" viewBox="-5.0 -10.0 110.0 135.0" width="68px" height="68px" fill="#193cb8">
 <path d="m23.609 40v35.379h-6.75v-35.379zm-11.758-7.2109h76.301-0.003906c0.93359 0 1.6914-0.75391 1.6914-1.6875v-7.1016c0-1.0352-0.62891-1.9648-1.5898-2.3516l-37-15.922v0.003907c-0.79297-0.36328-1.707-0.36328-2.5 0l-37 15.922v-0.003906c-0.96094 0.38672-1.5898 1.3164-1.5898 2.3516v7.1016c0 0.93359 0.75781 1.6875 1.6914 1.6875zm38.148-18.438c2.3438 0 4.4531 1.4102 5.3477 3.5742 0.89844 2.1602 0.40234 4.6523-1.2539 6.3086s-4.1445 2.1523-6.3086 1.2539c-2.1641-0.89453-3.5742-3.0078-3.5742-5.3477 0-1.5352 0.60937-3.0078 1.6953-4.0938s2.5586-1.6953 4.0938-1.6953zm-43.871 80.207h87.742c0.78125-0.003906 1.4141-0.63672 1.418-1.418v-2.2109c0-0.78516-0.63672-1.418-1.418-1.418h-87.742c-0.78125 0-1.418 0.63281-1.418 1.418v2.2109c0.003906 0.78125 0.63672 1.4141 1.418 1.418zm4.5586-12h78.621c0.37891 0.003906 0.74219 0.15625 1.0078 0.42578 0.26953 0.27344 0.41797 0.63672 0.41406 1.0156v3.6406h-81.461v-3.6406c0.007813-0.78125 0.63672-1.4141 1.4219-1.4219zm5.5508-44.48c-1.043 0-1.8945-0.84375-1.8984-1.8867v-1.5195h11.789v1.5195c0 1.043-0.84375 1.8867-1.8906 1.8867zm0 39.191c-1.043 0-1.8945 0.84375-1.8984 1.8906v1.5195h11.789v-1.5195c0-1.043-0.84375-1.8906-1.8906-1.8906zm19.84 0c-1.043 0-1.8867 0.84766-1.8867 1.8906v1.5195h11.809v-1.5195c0-1.043-0.84766-1.8906-1.8906-1.8906zm19.84 0h0.003906c-0.50781-0.007812-0.99609 0.1875-1.3594 0.54297-0.35938 0.35547-0.5625 0.83984-0.5625 1.3477v1.5195h11.809v-1.5195c0-1.043-0.84375-1.8906-1.8867-1.8906zm19.84 0h0.003907c-1.0469 0-1.8906 0.84766-1.8906 1.8906v1.5195h11.789v-1.5195c-0.003906-1.0469-0.85547-1.8906-1.8984-1.8906zm-39.68-39.191c-1.043 0-1.8867-0.84375-1.8867-1.8867v-1.5195h11.809v1.5195c0 1.043-0.84766 1.8867-1.8906 1.8867zm19.84 0h0.003906c-0.50781 0.011719-0.99609-0.1875-1.3594-0.53906-0.35938-0.35547-0.5625-0.84375-0.5625-1.3477v-1.5195h11.809v1.5195c0 1.043-0.84375 1.8867-1.8867 1.8867zm19.84 0h0.003907c-1.0469 0-1.8906-0.84375-1.8906-1.8867v-1.5195h11.789v1.5195c-0.003906 1.043-0.85547 1.8867-1.8984 1.8867zm-32.297 1.9219v35.379h-6.7617v-35.379zm19.84 0v35.379h-6.7617v-35.379zm19.84 0v35.379h-6.75v-35.379z" fill-rule="evenodd"/>
</svg>